<?xml version="1.0" encoding="utf-8"?>
<!-- Generator: Adobe Illustrator 28.0.0, SVG Export Plug-In . SVG Version: 6.00 Build 0)  -->
<svg version="1.1" id="レイヤー_1" xmlns="http://www.w3.org/2000/svg" xmlns:xlink="http://www.w3.org/1999/xlink" x="0px"
	 y="0px" width="150px" height="40px" viewBox="0 0 150 40" style="enable-background:new 0 0 150 40;" xml:space="preserve">
<style type="text/css">
	.st0{fill:#231815;}
	.st1{fill:#8DC21F;}
	.st2{fill:#FFFFFF;}
</style>
<g>
	<path class="st0" d="M50.5,38.9c-2.2,0-3.9-0.7-5.7-2.1c-0.2-0.2-0.2-0.3-0.1-0.5l1.1-1.6c0.1-0.2,0.3-0.2,0.4-0.1
		c1.5,1,2.8,1.7,4.3,1.7c1.6,0,3.2-0.7,3.2-2.2c0-1.6-1.7-2-3.6-2.4c-2.3-0.5-5.4-1.6-5.4-4.9c0-3.1,2.7-4.4,6-4.4
		c1.9,0,3.4,0.5,5.2,1.8c0.2,0.1,0.2,0.3,0.1,0.4L55,26.1c-0.1,0.2-0.3,0.2-0.5,0.1c-1.3-0.8-2.6-1.3-4-1.3c-1.9,0-3,0.8-3,2
		c0,1.4,1.4,1.8,3.4,2.3c2.6,0.6,5.7,1.4,5.7,5C56.6,37.4,53.8,38.9,50.5,38.9z"/>
	<path class="st0" d="M67.7,27c0.2,0,0.3,0.1,0.3,0.3v10.2c0,0.2-0.1,0.3-0.2,0.4c-1.3,0.6-2.8,0.9-4.4,0.9c-3,0-5.1-1.5-5.1-5v-6.5
		c0-0.2,0.1-0.3,0.3-0.3h1.9c0.2,0,0.3,0.1,0.3,0.3v6.5c0,2.1,0.9,2.7,2.5,2.7c0.7,0,1.5-0.1,2-0.3v-8.9c0-0.2,0.1-0.3,0.3-0.3H67.7
		z"/>
	<path class="st0" d="M81.2,26.8c2.8,0,4.8,1.6,4.8,4.8v6.7c0,0.2-0.1,0.3-0.3,0.3h-1.9c-0.2,0-0.3-0.1-0.3-0.3v-6.8
		c0-1.5-0.7-2.3-2.3-2.3c-0.7,0-1.4,0.2-2,0.6c0.2,0.5,0.3,1.1,0.3,1.8v6.8c0,0.2-0.1,0.3-0.3,0.3h-1.9c-0.2,0-0.3-0.1-0.3-0.3v-6.8
		c0-1.6-0.8-2.3-2.2-2.3c-0.8,0-1.3,0.1-1.8,0.2v8.9c0,0.2-0.1,0.3-0.3,0.3h-1.9c-0.2,0-0.3-0.1-0.3-0.3V28c0-0.2,0.1-0.3,0.3-0.4
		c1.2-0.5,2.6-0.9,4-0.9c1.3,0,2.4,0.4,3.2,1C79,27.1,79.9,26.8,81.2,26.8z"/>
	<path class="st0" d="M99.2,26.8c2.8,0,4.8,1.6,4.8,4.8v6.7c0,0.2-0.1,0.3-0.3,0.3h-1.9c-0.2,0-0.3-0.1-0.3-0.3v-6.8
		c0-1.5-0.7-2.3-2.3-2.3c-0.7,0-1.4,0.2-2,0.6c0.2,0.5,0.3,1.1,0.3,1.8v6.8c0,0.2-0.1,0.3-0.3,0.3h-1.9c-0.2,0-0.3-0.1-0.3-0.3v-6.8
		c0-1.6-0.8-2.3-2.2-2.3c-0.8,0-1.3,0.1-1.8,0.2v8.9c0,0.2-0.1,0.3-0.3,0.3h-1.9c-0.2,0-0.3-0.1-0.3-0.3V28c0-0.2,0.1-0.3,0.3-0.4
		c1.2-0.5,2.6-0.9,4-0.9c1.3,0,2.4,0.4,3.2,1C96.9,27.1,97.9,26.8,99.2,26.8z"/>
	<path class="st0" d="M107.5,25.5c-0.8,0-1.5-0.6-1.5-1.5c0-0.8,0.6-1.5,1.5-1.5c0.8,0,1.5,0.6,1.5,1.5
		C109,24.8,108.4,25.5,107.5,25.5z M106.5,38.6c-0.2,0-0.3-0.1-0.3-0.3V27.3c0-0.2,0.1-0.3,0.3-0.3h1.9c0.2,0,0.3,0.1,0.3,0.3v10.9
		c0,0.2-0.1,0.3-0.3,0.3H106.5z"/>
	<path class="st0" d="M118.8,36.4c-0.4,0-0.7,0-0.9,0c-1.1,0-1.8-0.7-1.8-1.9v-5.1h2.4c0.2,0,0.3-0.1,0.3-0.3v-1.6
		c0-0.2-0.1-0.3-0.3-0.3h-2.4v-2.7c0-0.2-0.2-0.3-0.3-0.3h-1.9c-0.2,0-0.3,0.1-0.3,0.3v2.7h-2.3c-0.2,0-0.3,0.1-0.3,0.3v1.6
		c0,0.2,0.1,0.3,0.3,0.3h2.3v5.3c0,2.9,1.8,4.1,4.1,4.1c0.3,0,0.8,0,1.2,0c0.2,0,0.3-0.2,0.3-0.4v-1.7
		C119.2,36.5,119.1,36.4,118.8,36.4z"/>
	<g>
		<path class="st0" d="M45.8,17c-0.2,0-0.3-0.1-0.3-0.3V1.3c0-0.2,0.1-0.3,0.3-0.3h5.5c3.7,0,6,2,6,5.9v4.2c0,3.9-2.3,5.8-6,5.8
			H45.8z M48.2,14.4h3.1c2.1,0,3.2-1,3.2-3.3V6.9c0-2.3-1.1-3.4-3.2-3.4h-3.1V14.4z"/>
		<path class="st0" d="M68.8,12c0,0.2-0.1,0.3-0.3,0.3h-6.8v0.6c0,1.4,0.9,2.1,2.4,2.1c1.4,0,2.3-0.5,3.1-1c0.2-0.1,0.3-0.1,0.4,0.1
			l0.9,1.2c0.1,0.2,0.1,0.3-0.1,0.5c-1.2,0.9-2.6,1.5-4.5,1.5c-2.5,0-4.9-1.4-4.9-4.4V9.7c0-3.3,2.5-4.6,4.9-4.6
			c2.4,0,4.8,1.3,4.8,4.6V12z M64,7.4c-1.3,0-2.3,0.6-2.3,2.3v0.6h4.6V9.7C66.3,8.1,65.2,7.4,64,7.4z"/>
		<path class="st0" d="M73.8,17c-0.2,0-0.3-0.1-0.4-0.3L69.5,5.8c-0.1-0.2,0-0.4,0.2-0.4h2.1c0.2,0,0.3,0.1,0.4,0.2l2.7,8.6h0
			l2.7-8.6c0-0.2,0.2-0.2,0.4-0.2h2.1c0.2,0,0.3,0.2,0.2,0.4l-3.9,10.9c-0.1,0.2-0.2,0.3-0.4,0.3H73.8z"/>
		<path class="st0" d="M90.8,12c0,0.2-0.1,0.3-0.3,0.3h-6.8v0.6c0,1.4,0.9,2.1,2.4,2.1c1.4,0,2.3-0.5,3.1-1c0.2-0.1,0.3-0.1,0.4,0.1
			l0.9,1.2c0.1,0.2,0.1,0.3-0.1,0.5c-1.2,0.9-2.6,1.5-4.5,1.5c-2.5,0-4.9-1.4-4.9-4.4V9.7c0-3.3,2.5-4.6,4.9-4.6
			c2.4,0,4.8,1.3,4.8,4.6V12z M86,7.4c-1.3,0-2.3,0.6-2.3,2.3v0.6h4.6V9.7C88.3,8.1,87.3,7.4,86,7.4z"/>
		<path class="st0" d="M95.1,1h-1.9c-0.2,0-0.3,0.1-0.3,0.3v15.4c0,0.2,0.1,0.3,0.3,0.3h1.9c0.2,0,0.3-0.1,0.3-0.3V1.3
			C95.4,1.1,95.3,1,95.1,1z"/>
		<path class="st0" d="M102.5,17.2c-3.1,0-5.1-1.7-5.1-4.5v-3c0-2.8,2-4.6,5.1-4.6c3.1,0,5.1,1.8,5.1,4.6v3
			C107.6,15.5,105.6,17.2,102.5,17.2z M102.5,14.9c1.6,0,2.5-0.8,2.5-2.2v-3c0-1.5-0.9-2.3-2.5-2.3c-1.6,0-2.5,0.8-2.5,2.3v3
			C100,14.2,100.9,14.9,102.5,14.9z"/>
		<path class="st0" d="M114.3,5.1c2.9,0,5.1,1.5,5.1,4.9v2.5c0,2.9-2.1,4.8-4.9,4.8c-0.9,0-1.7-0.2-2.4-0.5v4.1
			c0,0.2-0.1,0.3-0.3,0.3h-1.9c-0.2,0-0.3-0.1-0.3-0.3V6.3c0-0.2,0.1-0.3,0.2-0.4C111.1,5.4,112.8,5.1,114.3,5.1z M116.8,12.5V10
			c0-1.9-1-2.6-2.6-2.6c-0.8,0-1.6,0.1-2.1,0.3v6.6c0.6,0.4,1.3,0.6,2.1,0.6C115.9,15,116.8,14.2,116.8,12.5z"/>
		<path class="st0" d="M131,12c0,0.2-0.1,0.3-0.3,0.3h-6.8v0.6c0,1.4,0.9,2.1,2.4,2.1c1.4,0,2.3-0.5,3.1-1c0.2-0.1,0.3-0.1,0.4,0.1
			l0.9,1.2c0.1,0.2,0.1,0.3-0.1,0.5c-1.2,0.9-2.6,1.5-4.5,1.5c-2.5,0-4.9-1.4-4.9-4.4V9.7c0-3.3,2.5-4.6,4.9-4.6
			c2.4,0,4.8,1.3,4.8,4.6V12z M126.2,7.4c-1.3,0-2.3,0.6-2.3,2.3v0.6h4.6V9.7C128.5,8.1,127.4,7.4,126.2,7.4z"/>
		<path class="st0" d="M145.3,17.2c-1.5,0-3.1-0.4-4.5-1.5c-0.2-0.1-0.2-0.3-0.1-0.4l0.8-1.5c0.1-0.2,0.2-0.2,0.4-0.1
			c1,0.7,2.2,1.1,3.4,1.1c1.2,0,2.1-0.4,2.1-1.3c0-0.9-1.1-1.1-2.1-1.3c-1.7-0.3-4.5-1-4.5-3.7c0-2.5,2.3-3.5,4.7-3.5
			c1.3,0,2.6,0.3,3.9,1c0.2,0.1,0.2,0.3,0.1,0.4L148.7,8c-0.1,0.2-0.3,0.2-0.4,0.1c-0.8-0.4-1.8-0.7-2.8-0.7c-1.3,0-2,0.5-2,1.2
			c0,0.9,1,1.1,2.5,1.4c1.8,0.3,4.2,0.9,4.2,3.5C150,16,147.9,17.2,145.3,17.2z"/>
		<path class="st0" d="M139.6,8.3l-0.3-1.6c0-0.2-0.2-0.3-0.4-0.3c-0.8,0.1-1.9,0.3-2.5,0.5c-0.3,0.1-0.7,0.2-1,0.2V5.5
			c0-0.2-0.1-0.3-0.3-0.3h-1.9c-0.2,0-0.3,0.1-0.3,0.3v2.9v0.9v7.4c0,0.2,0.1,0.3,0.3,0.3h1.9c0.2,0,0.3-0.1,0.3-0.3V9.8
			c0.4-0.2,1.1-0.6,1.8-0.7c0.6-0.1,1.5-0.4,2.1-0.4C139.5,8.6,139.6,8.5,139.6,8.3z"/>
	</g>
	<path class="st1" d="M40,20c0,11.1-9,20-20,20C9,40,0,31.1,0,20C0,9,9,0,20,0C31.1,0,40,9,40,20z"/>
	<path class="st2" d="M19.9,29.7c-0.5,0-0.8-0.4-0.8-0.8v-6.7c0-0.5,0.4-0.8,0.8-0.8h4l-3.9-13L16,22.1c-0.1,0.4-0.6,0.7-1,0.6
		c-0.4-0.1-0.7-0.6-0.6-1l4.7-16.5c0.1-0.4,0.4-0.6,0.8-0.6c0.4,0,0.7,0.2,0.8,0.6l5.1,16.8c0.1,0.3,0,0.5-0.1,0.7
		C25.5,22.9,25.2,23,25,23h-4.2v5.9C20.7,29.4,20.4,29.7,19.9,29.7z"/>
	<path class="st2" d="M30.7,32.9c-0.5,0-0.8-0.4-0.8-0.8v-5.7c0-0.5,0.4-0.8,0.8-0.8h3.2L30.7,15l-3.2,11.3c-0.1,0.4-0.6,0.7-1,0.6
		c-0.4-0.1-0.7-0.6-0.6-1l4-14c0.1-0.4,0.4-0.6,0.8-0.6c0.4,0,0.7,0.2,0.8,0.6l4.3,14.3c0.1,0.3,0,0.5-0.1,0.7
		c-0.2,0.2-0.4,0.3-0.7,0.3h-3.5V32C31.5,32.5,31.2,32.9,30.7,32.9z"/>
	<path class="st2" d="M9.3,32.9c-0.5,0-0.8-0.4-0.8-0.8v-5.7c0-0.5,0.4-0.8,0.8-0.8h3.2L9.3,15L6,26.3c-0.1,0.4-0.6,0.7-1,0.6
		c-0.4-0.1-0.7-0.6-0.6-1l4-14c0.1-0.4,0.4-0.6,0.8-0.6c0.4,0,0.7,0.2,0.8,0.6l4.3,14.3c0.1,0.3,0,0.5-0.1,0.7
		c-0.2,0.2-0.4,0.3-0.7,0.3h-3.5V32C10.1,32.5,9.7,32.9,9.3,32.9z"/>
</g>
</svg>
